<?xml version="1.0" encoding="utf-8"?>
<!-- Generator: Adobe Illustrator 24.0.1, SVG Export Plug-In . SVG Version: 6.00 Build 0)  -->
<svg version="1.1" id="图层_1" xmlns="http://www.w3.org/2000/svg" xmlns:xlink="http://www.w3.org/1999/xlink" x="0px" y="0px"
	 viewBox="0 0 425.2 425.2" style="enable-background:new 0 0 425.2 425.2;" xml:space="preserve">
<style type="text/css">
	.st0{fill:none;stroke:#040001;stroke-miterlimit:10;}
	.st1{fill:#179B55;}
</style>
<path d="M308.54,30.74c0,0-42.69-23.4-95.96-23.57C128.78,6.91,7.16,83.85,7.16,212.6c0,113.45,91.97,205.42,205.42,205.42
	c121.56,0,203.67-108.11,205.42-205.42c1.22-68.02-29.9-106.64-45.08-124.47l-22.24,29.17c23.7,29.07,30.76,54.86,30.76,95.29
	c0,93.26-75.6,168.86-168.86,168.86S43.72,305.86,43.72,212.6s75.6-168.86,168.86-168.86c0,0,45.26-1.74,80.08,22.63l19.97-33.2"/>
<path class="st0" d="M312.63,33.16"/>
<path d="M115.11,160.39l28.55,29.25v131.01c0,5.48-6.65,8.19-10.48,4.27l-11.93-12.22c-8.75-8.97-13.65-21-13.65-33.53V163.45
	C107.6,159.52,112.37,157.58,115.11,160.39z"/>
<path d="M313.82,160.39l-28.55,29.25v131.01c0,5.48,6.65,8.19,10.48,4.27l11.93-12.22c8.75-8.97,13.65-21,13.65-33.53V163.45
	C321.34,159.52,316.57,157.58,313.82,160.39z"/>
<path class="st1" d="M144.19,157.67l56.05,58.26c7.78,8.09,20.68,8.24,28.65,0.33L358.37,86.99c8.23-8.16,8.67-21.33,1-30.02
	l-0.72-0.82c-9.82-11.14-27.06-11.48-37.31-0.74l-104.5,109.08l-36.92-35.83c-10.16-9.86-26.45-9.4-36.05,1.01l0,0
	C136.56,137.62,136.7,149.89,144.19,157.67z"/>
</svg>
